<svg width="1488" height="842" viewBox="0 0 1488 842" fill="none" xmlns="http://www.w3.org/2000/svg">
<g clip-path="url(#clip0_75_12)">
<rect width="1488" height="842" rx="54" fill="white"/>
<path d="M-85.5214 467.29H177.794L132.766 456.523C132.766 456.523 146.47 454.566 133.745 439.883C121.02 425.201 105.358 439.883 105.358 439.883C105.358 439.883 95.0157 380.929 34.8147 394.632C-25.3862 408.336 -17.9807 443.799 -17.9807 443.799C-17.9807 443.799 -23.8537 430.569 -37.5573 435.226C-51.2609 439.883 -56.1565 449.673 -56.1565 449.673C-56.1565 449.673 -76.7119 435.969 -92.3747 443.8C-108.036 451.631 -110.972 461.315 -110.972 461.315L-156 467.292L-85.5214 467.29Z" fill="#96DCFF"/>
<path opacity="0.28" d="M-10.497 439.671C-10.497 439.671 -13.4885 416.935 16.4284 409.904C46.3469 402.874 37.9687 423.816 21.5152 433.389C5.06025 442.963 -11.0246 446.765 -10.497 439.671Z" fill="white"/>
<path opacity="0.26" d="M1235.69 561.384H1679.44V529.77L1235.69 561.384Z" fill="#96DCFF"/>
<path opacity="0.26" d="M-241.312 355.523H264.051L-241.312 336V355.523Z" fill="#96DCFF"/>
<path opacity="0.26" d="M-156.466 748.076H109.252L-287 764.448L-156.466 748.076Z" fill="#96DCFF"/>
<path opacity="0.26" d="M344.299 538.23L101.688 549.566H430.665L344.299 538.23Z" fill="#96DCFF"/>
<g filter="url(#filter0_f_75_12)">
<path d="M250.709 881.418H439.138L402.81 873.449C402.81 873.449 414.022 861.305 398.774 854.474C383.524 847.643 371.415 856.371 371.415 856.371C371.415 856.371 379.039 843.168 362.445 834.02C345.851 824.873 327.462 838.155 327.462 851.818C327.462 851.818 321.632 846.884 314.007 852.576C314.007 852.576 310.947 843.591 297.413 843.848C277.679 844.223 276.334 865.278 280.819 874.765L250.709 881.418Z" fill="#96DCFF"/>
<path opacity="0.28" d="M330.048 864.713C330.048 864.713 328.45 842.122 343.739 839.226C359.028 836.33 357.658 853.514 347.391 864.713C337.122 875.911 329.999 869.379 330.048 864.713Z" fill="white"/>
</g>
<g filter="url(#filter1_f_75_12)">
<path d="M990.797 870.418H1097.01L1076.53 865.926C1076.53 865.926 1082.85 859.081 1074.25 855.231C1065.66 851.381 1058.83 856.301 1058.83 856.301C1058.83 856.301 1063.13 848.858 1053.78 843.702C1044.42 838.547 1034.06 846.033 1034.06 853.734C1034.06 853.734 1030.77 850.953 1026.48 854.162C1026.48 854.162 1024.75 849.097 1017.12 849.242C1006 849.453 1005.24 861.321 1007.77 866.668L990.797 870.418Z" fill="#96DCFF"/>
</g>
<path d="M1222.69 359.472H1505.16L1450.7 347.7C1450.7 347.7 1467.51 329.763 1444.65 319.673C1421.79 309.583 1403.64 322.475 1403.64 322.475C1403.64 322.475 1415.07 302.972 1390.19 289.461C1365.31 275.95 1337.75 295.569 1337.75 315.749C1337.75 315.749 1329.01 308.462 1317.58 316.87C1317.58 316.87 1312.99 303.597 1292.7 303.977C1263.12 304.532 1261.1 335.631 1267.83 349.644L1222.69 359.472Z" fill="#96DCFF"/>
<path opacity="0.28" d="M1272.25 346.098C1272.25 346.098 1264.67 326.651 1278.08 318.386C1291.49 310.121 1286.83 336.375 1281 343.182C1275.16 349.988 1273.22 349.241 1272.25 346.098Z" fill="white"/>
<path opacity="0.28" d="M1341.62 334.796C1341.62 334.796 1339.23 301.427 1362.15 297.15C1385.07 292.872 1383.01 318.255 1367.62 334.796C1352.23 351.336 1341.55 341.688 1341.62 334.796Z" fill="white"/>
<path opacity="0.26" d="M1659.3 86.5664L1416.69 97.9016H1745.67L1659.3 86.5664Z" fill="#96DCFF"/>
</g>
<defs>
<filter id="filter0_f_75_12" x="241.509" y="821.8" width="206.83" height="68.818" filterUnits="userSpaceOnUse" color-interpolation-filters="sRGB">
<feFlood flood-opacity="0" result="BackgroundImageFix"/>
<feBlend mode="normal" in="SourceGraphic" in2="BackgroundImageFix" result="shape"/>
<feGaussianBlur stdDeviation="4.6" result="effect1_foregroundBlur_75_12"/>
</filter>
<filter id="filter1_f_75_12" x="981.597" y="832.8" width="124.609" height="46.818" filterUnits="userSpaceOnUse" color-interpolation-filters="sRGB">
<feFlood flood-opacity="0" result="BackgroundImageFix"/>
<feBlend mode="normal" in="SourceGraphic" in2="BackgroundImageFix" result="shape"/>
<feGaussianBlur stdDeviation="4.6" result="effect1_foregroundBlur_75_12"/>
</filter>
<clipPath id="clip0_75_12">
<rect width="1488" height="842" rx="54" fill="white"/>
</clipPath>
</defs>
</svg>
