<svg width="104" height="31" viewBox="0 0 104 31" fill="none" xmlns="http://www.w3.org/2000/svg">
<path d="M15.2703 0.567017C6.94027 0.567084 0.187256 7.32002 0.187256 15.65C0.187323 23.98 6.94032 30.733 15.2703 30.733H30.3533V15.65C30.3533 7.31998 23.6003 0.567017 15.2703 0.567017ZM7.55347 22.8375C7.86283 22.7482 8.23719 22.8779 8.51636 22.9557L13.7908 24.3766C15.0835 24.7247 16.4453 24.7247 17.738 24.3766L22.9998 22.9557C23.279 22.8778 23.6542 22.748 23.9636 22.8375C24.1335 22.8888 24.2825 22.993 24.3884 23.1354C24.4944 23.2778 24.5513 23.451 24.5515 23.6285C24.5514 24.0437 24.2962 24.2766 23.9636 24.4244C23.7204 24.5383 23.5349 24.6029 22.9998 24.7867L17.9998 27.361C16.5504 27.8669 14.9726 27.8669 13.5232 27.361L8.51636 24.7867C7.9816 24.602 7.79649 24.5381 7.55347 24.4244C7.22074 24.2766 6.96471 24.0449 6.9646 23.6285C6.96479 23.451 7.0217 23.2778 7.12769 23.1354C7.23371 22.9929 7.38341 22.8887 7.55347 22.8375ZM5.23413 17.9108C5.50741 17.833 5.91193 17.9334 6.19702 17.9879L14.6287 19.4918C15.3798 19.6226 16.148 19.6226 16.8992 19.4918L25.3191 17.9879C25.6042 17.9334 26.0077 17.833 26.282 17.9108C26.4518 17.9621 26.601 18.0662 26.7068 18.2086C26.8126 18.3511 26.8697 18.5243 26.8699 18.7018C26.8698 19.0812 26.6264 19.3731 26.282 19.486C26.0077 19.5754 25.8121 19.6173 25.3191 19.736L18.5281 22.4938C17.9647 22.7225 17.3877 22.929 16.7839 23.0006C15.9038 23.105 15.0087 23.0507 14.1433 22.8375L6.19702 19.736C5.704 19.6173 5.50747 19.5754 5.23413 19.486C4.88974 19.3731 4.64538 19.0821 4.64526 18.7018C4.64546 18.5242 4.7033 18.3511 4.80933 18.2086C4.91532 18.0663 5.06418 17.9619 5.23413 17.9108ZM4.6687 13.5592C4.94117 13.4755 5.34064 13.5398 5.63257 13.5699L14.616 14.4742C15.3788 14.5495 16.1471 14.5495 16.9099 14.4742L25.8826 13.569C26.1745 13.5398 26.578 13.4756 26.8455 13.5592C27.0152 13.6087 27.1641 13.7118 27.2703 13.8531C27.3764 13.9945 27.4342 14.1666 27.4343 14.3434C27.4342 14.7295 27.1908 15.0099 26.8455 15.1276C26.578 15.217 26.3824 15.247 25.8826 15.3239L18.657 17.7291C17.6985 18.0482 16.715 18.3272 15.7048 18.3297C14.6617 18.3323 13.6469 18.0405 12.6589 17.7057L5.63159 15.3239C5.13241 15.246 4.94213 15.2229 4.6687 15.1276C4.32433 15.0099 4.07997 14.7295 4.07983 14.3434C4.07993 14.1666 4.13781 13.9945 4.2439 13.8531C4.35001 13.7118 4.49902 13.6087 4.6687 13.5592ZM24.3074 9.44202C24.5993 9.44202 24.9978 9.42962 25.2712 9.51233C25.4413 9.56148 25.5906 9.6649 25.697 9.80627C25.8034 9.9478 25.861 10.1204 25.8611 10.2975C25.8611 10.4747 25.8035 10.648 25.697 10.7897C25.5906 10.931 25.4412 11.0345 25.2712 11.0836C24.9978 11.1605 24.5993 11.1774 24.3074 11.1959L17.3923 13.0182C16.8031 13.1734 16.1979 13.2806 15.5886 13.2819C14.94 13.2832 14.3006 13.1643 13.6755 12.9908L7.20776 11.1959C6.91584 11.1774 6.51733 11.1605 6.2439 11.0836C6.0739 11.0345 5.92457 10.931 5.81812 10.7897C5.7116 10.648 5.65405 10.4747 5.65405 10.2975C5.65415 10.1204 5.71169 9.9478 5.81812 9.80627C5.92457 9.6649 6.07388 9.56149 6.2439 9.51233C6.51733 9.42962 6.91584 9.44202 7.20776 9.44202H24.3074ZM13.0818 5.58459C14.8636 5.38208 16.6632 5.38208 18.4451 5.58459L21.115 5.88831C21.4009 5.91748 21.8103 5.94144 22.0779 6.02405C22.3503 6.11356 22.6667 6.36949 22.6667 6.8092C22.6667 7.18871 22.4165 7.49218 22.0779 7.59338C21.8045 7.67114 21.401 7.66565 21.115 7.66565H10.4011C10.1161 7.66565 9.71164 7.67115 9.43823 7.59338C9.26806 7.54463 9.11774 7.44199 9.01147 7.30042C8.90528 7.15887 8.84867 6.98615 8.84937 6.8092C8.84946 6.36949 9.16483 6.11356 9.43823 6.02405C9.7058 5.94144 10.1161 5.91748 10.4011 5.88831L13.0818 5.58459Z" fill="#1C1B1B"/>
<path d="M39.6433 25.8983H34.9088V7.91208H39.6433V14.6006H46.2817V7.91208H51.0163V25.8983H46.2817V18.7088H39.6433V25.8983Z" fill="#1C1B1B"/>
<path d="M59.0375 9.28986C59.0375 10.6927 57.9102 11.7198 56.2819 11.7198C54.6537 11.7198 53.5264 10.6927 53.5264 9.28986C53.5264 7.86198 54.6537 6.83492 56.2819 6.83492C57.9102 6.83492 59.0375 7.86198 59.0375 9.28986ZM58.4613 25.8983H54.1777V12.4212H58.4613V25.8983Z" fill="#1C1B1B"/>
<path d="M74.2231 12.4212L69.3884 25.8983H64.6288L59.744 12.4212H64.4034L67.1088 21.0385L69.8644 12.4212H74.2231Z" fill="#1C1B1B"/>
<path d="M88.7054 12.4212L83.8707 25.8983H79.1111L74.2263 12.4212H78.8857L81.5911 21.0385L84.3466 12.4212H88.7054Z" fill="#1C1B1B"/>
<path d="M103.188 12.4212L96.7748 30.733H92.0904L93.9691 25.748L88.7086 12.4212H93.3679L96.2738 20.763L98.879 12.4212H103.188Z" fill="#1C1B1B"/>
</svg>
