<svg width="345" height="715" viewBox="0 0 345 715" fill="none" xmlns="http://www.w3.org/2000/svg">
<g clip-path="url(#clip0_77_5)">
<rect width="345" height="715" fill="white"/>
<path d="M238 321.734H411.471L378.027 314.505C378.027 314.505 388.349 303.49 374.311 297.293C360.272 291.097 349.124 299.014 349.124 299.014C349.124 299.014 356.143 287.037 340.866 278.74C325.589 270.442 308.66 282.491 308.66 294.884C308.66 294.884 303.293 290.408 296.274 295.572C296.274 295.572 293.456 287.421 280.997 287.654C262.829 287.995 261.591 307.093 265.72 315.699L238 321.734Z" fill="#96DCFF"/>
<path opacity="0.28" d="M268.438 313.522C268.438 313.522 263.782 301.58 272.019 296.504C280.256 291.428 277.391 307.551 273.809 311.731C270.228 315.911 269.032 315.453 268.438 313.522Z" fill="white"/>
<path opacity="0.28" d="M311.04 306.58C311.04 306.58 309.569 286.088 323.645 283.462C337.719 280.835 336.459 296.422 327.006 306.58C317.553 316.739 310.995 310.813 311.04 306.58Z" fill="white"/>
<path d="M-9 306.583H107L84.6356 301.748C84.6356 301.748 91.5381 294.382 82.1509 290.239C72.7631 286.095 65.3085 291.39 65.3085 291.39C65.3085 291.39 70.0021 283.381 59.7865 277.832C49.5709 272.284 38.2505 280.34 38.2505 288.627C38.2505 288.627 34.6611 285.635 29.9675 289.088C29.9675 289.088 28.0833 283.637 19.7519 283.793C7.60311 284.021 6.7753 296.792 9.53631 302.547L-9 306.583Z" fill="#96DCFF"/>
<path opacity="0.28" d="M11.3531 301.091C11.3531 301.091 8.23977 293.105 13.748 289.711C19.2562 286.317 17.3399 297.098 14.9451 299.894C12.5502 302.689 11.7507 302.382 11.3531 301.091Z" fill="white"/>
<path opacity="0.28" d="M39.8419 296.449C39.8419 296.449 38.8583 282.746 48.2706 280.989C57.6823 279.233 56.8394 289.656 50.5185 296.449C44.197 303.242 39.8117 299.279 39.8419 296.449Z" fill="white"/>
</g>
<defs>
<clipPath id="clip0_77_5">
<rect width="345" height="715" fill="white"/>
</clipPath>
</defs>
</svg>
