<svg width="126" height="38" viewBox="0 0 126 38" fill="none" xmlns="http://www.w3.org/2000/svg">
<path d="M18.9912 0.566895C8.88211 0.567053 0.6875 8.76245 0.6875 18.8716C0.68766 28.9806 8.88221 37.1751 18.9912 37.1753H37.2959V18.8716C37.2959 8.76235 29.1004 0.566895 18.9912 0.566895ZM9.62598 27.5933C10.0014 27.4848 10.4561 27.6433 10.7949 27.7378L17.1953 29.4614C18.7643 29.884 20.4173 29.884 21.9863 29.4614L28.3721 27.7378C28.711 27.6433 29.1656 27.4846 29.541 27.5933C29.7474 27.6554 29.928 27.7827 30.0566 27.9556C30.1852 28.1283 30.2545 28.3379 30.2549 28.5532C30.2549 29.0575 29.9449 29.3405 29.541 29.52C29.2458 29.6582 29.0214 29.7373 28.3721 29.9604L22.3037 33.0835C20.5448 33.6974 18.63 33.6975 16.8711 33.0835L10.7949 29.9604C10.1456 29.7362 9.92105 29.6581 9.62598 29.52C9.2221 29.3405 8.91113 29.0587 8.91113 28.5532C8.91147 28.3379 8.9809 28.1283 9.10938 27.9556C9.23804 27.7827 9.4196 27.6554 9.62598 27.5933ZM6.81152 21.6147C7.14332 21.5203 7.63446 21.6433 7.98047 21.7095L18.2119 23.5337C19.1238 23.6925 20.0569 23.6925 20.9688 23.5337L31.1855 21.7095C31.5316 21.6433 32.0224 21.5203 32.3555 21.6147C32.5615 21.6771 32.7418 21.8043 32.8701 21.9771C32.9985 22.1499 33.0682 22.3594 33.0684 22.5747C33.0683 23.0352 32.7734 23.3898 32.3555 23.5269C32.0224 23.6355 31.7843 23.6855 31.1855 23.8296L22.9453 27.1763C22.2615 27.454 21.5611 27.7045 20.8281 27.7915C19.76 27.9181 18.6742 27.852 17.624 27.5933L7.98047 23.8296C7.382 23.6856 7.14328 23.6355 6.81152 23.5269C6.39349 23.3899 6.0967 23.0364 6.09668 22.5747C6.09691 22.3592 6.16723 22.149 6.2959 21.9761C6.42453 21.8034 6.60534 21.6768 6.81152 21.6147ZM6.125 16.3335C6.45566 16.2319 6.94064 16.3106 7.29492 16.3472L18.1973 17.4448C19.1231 17.5362 20.0556 17.5362 20.9814 17.4448L31.8701 16.3462C32.2244 16.3107 32.7144 16.232 33.0391 16.3335C33.2449 16.3935 33.4259 16.5185 33.5547 16.6899C33.6835 16.8616 33.7528 17.0711 33.7529 17.2856C33.7528 17.7542 33.458 18.0939 33.0391 18.2368C32.7144 18.3454 32.4769 18.3828 31.8701 18.4761L23.1016 21.395C21.9385 21.7822 20.7454 22.1194 19.5195 22.1226C18.2534 22.1258 17.0214 21.7721 15.8223 21.3657L7.29297 18.4761C6.68742 18.3816 6.45678 18.3525 6.125 18.2368C5.70732 18.0939 5.41128 17.7541 5.41113 17.2856C5.41125 17.0711 5.48056 16.8616 5.60938 16.6899C5.7381 16.5185 5.91921 16.3936 6.125 16.3335ZM29.959 11.3374C30.3132 11.3374 30.7961 11.323 31.1279 11.4233C31.3345 11.483 31.5163 11.608 31.6455 11.7798C31.7748 11.9517 31.8447 12.1614 31.8447 12.3765C31.8447 12.5914 31.7747 12.8004 31.6455 12.9722C31.5162 13.1441 31.3346 13.2699 31.1279 13.3296C30.7961 13.4228 30.3132 13.4439 29.959 13.4663L21.5674 15.6772C20.852 15.8657 20.1167 15.9961 19.377 15.9976C18.5898 15.9991 17.8142 15.8545 17.0557 15.644L9.20605 13.4663C8.85182 13.4439 8.36882 13.4228 8.03711 13.3296C7.83055 13.2699 7.64876 13.144 7.51953 12.9722C7.39047 12.8004 7.32038 12.5913 7.32031 12.3765C7.32031 12.1614 7.39029 11.9517 7.51953 11.7798C7.64873 11.608 7.83061 11.4831 8.03711 11.4233C8.36881 11.323 8.85182 11.3374 9.20605 11.3374H29.959ZM16.3359 6.65576C18.4983 6.41001 20.6814 6.41001 22.8438 6.65576L26.084 7.02393C26.4312 7.05935 26.9292 7.08956 27.2539 7.18994C27.5844 7.29872 27.9676 7.60888 27.9678 8.14209C27.9678 8.60248 27.6646 8.97128 27.2539 9.09424C26.9221 9.18871 26.4312 9.18213 26.084 9.18213H13.082C12.736 9.18213 12.2448 9.18869 11.9131 9.09424C11.7068 9.0351 11.5254 8.91034 11.3965 8.73877C11.2675 8.56696 11.1974 8.35691 11.1982 8.14209C11.1985 7.6087 11.5814 7.29862 11.9131 7.18994C12.2378 7.08959 12.736 7.05934 13.082 7.02393L16.3359 6.65576Z" fill="white"/>
<path d="M48.5704 31.3079H42.8246V9.48009H48.5704V17.5971H56.6266V9.48009H62.3724V31.3079H56.6266V22.5829H48.5704V31.3079Z" fill="white"/>
<path d="M72.1068 11.1521C72.1068 12.8546 70.7388 14.101 68.7627 14.101C66.7867 14.101 65.4186 12.8546 65.4186 11.1521C65.4186 9.41929 66.7867 8.17285 68.7627 8.17285C70.7388 8.17285 72.1068 9.41929 72.1068 11.1521ZM71.4076 31.3079H66.209V14.9523H71.4076V31.3079Z" fill="white"/>
<path d="M90.5359 14.9523L84.6686 31.3079H78.8924L72.9642 14.9523H78.6188L81.9021 25.4102L85.2462 14.9523H90.5359Z" fill="white"/>
<path d="M108.111 14.9523L102.244 31.3079H96.4679L90.5397 14.9523H96.1943L99.4776 25.4102L102.822 14.9523H108.111Z" fill="white"/>
<path d="M125.687 14.9523L117.904 37.1753H112.219L114.499 31.1255L108.115 14.9523H113.77L117.296 25.0758L120.458 14.9523H125.687Z" fill="white"/>
</svg>
